<?xml version="1.0" encoding="UTF-8"?>
<svg id="_레이어_3" data-name="레이어 3" xmlns="http://www.w3.org/2000/svg" viewBox="0 0 160 160">
  <path d="M119.35,61.91H41.96c-1.39,0-2.51,1.13-2.51,2.51l4,67.42c0,4.21,6.18,9.99,10.3,9.99h52.82c4.12,0,10.3-5.78,10.3-9.99l5-67.42c0-1.39-1.13-2.51-2.51-2.51Z"/>
  <path d="M125.27,32.61l-18.16,2.14c-.74.09-1.48-.16-2.02-.67l-10.75-10.18c-.54-.51-1.28-.76-2.02-.67l-30.41,3.59c-.74.09-1.4.5-1.81,1.12l-8.08,12.4c-.41.62-1.07,1.04-1.81,1.12l-18.16,2.14c-1.38.16-2.36,1.41-2.2,2.79l.96,8.09c.16,1.38,1.41,2.36,2.79,2.2l93.24-11.01c1.38-.16,2.36-1.41,2.2-2.79l-.96-8.09c-.16-1.38-1.41-2.36-2.79-2.2Z"/>
</svg>