<?xml version="1.0" encoding="UTF-8"?>
<svg id="_레이어_3" data-name="레이어 3" xmlns="http://www.w3.org/2000/svg" viewBox="0 0 160 160">
  <defs>
    <style>
      .cls-1 {
        fill: #ff8f1f;
      }
    </style>
  </defs>
  <path class="cls-1" d="M22.13,18.79v124.55c0,1.43,1.16,2.6,2.6,2.6h12.11c1.43,0,2.6-1.16,2.6-2.6v-46.7c0-1.43,1.16-2.6,2.6-2.6h19.77c7.83,0,15.34,3.11,20.88,8.65h0c5.54,5.54,13.05,8.65,20.88,8.65h32.11c4.17,0,7.55-3.38,7.55-7.55v-62.74c0-4.17-3.38-7.55-7.55-7.55h-32.11c-7.83,0-15.34-3.11-20.88-8.65h0c-5.54-5.54-13.05-8.65-20.88-8.65H24.73c-1.43,0-2.6,1.16-2.6,2.6Z"/>
</svg>