<?xml version="1.0" encoding="UTF-8"?>
<svg id="_레이어_3" data-name="레이어 3" xmlns="http://www.w3.org/2000/svg" xmlns:xlink="http://www.w3.org/1999/xlink" viewBox="0 0 720 480">
  <defs>
    <style>
      .cls-1 {
        fill: #c93300;
      }

      .cls-2 {
        stroke-width: 3.33px;
      }

      .cls-2, .cls-3 {
        stroke: #000;
        stroke-miterlimit: 10;
      }

      .cls-2, .cls-4 {
        fill: #fff;
      }

      .cls-3 {
        stroke-width: 6.67px;
      }

      .cls-3, .cls-5 {
        fill: none;
      }

      .cls-6 {
        opacity: .05;
      }

      .cls-7 {
        opacity: .4;
      }

      .cls-8 {
        fill: #2088ca;
      }

      .cls-9 {
        opacity: .8;
      }

      .cls-10 {
        clip-path: url(#clippath-1);
      }

      .cls-11 {
        fill: #db862b;
      }

      .cls-12 {
        opacity: .2;
      }

      .cls-13 {
        fill: #861f00;
      }

      .cls-14 {
        opacity: .6;
      }

      .cls-15 {
        opacity: .1;
      }

      .cls-16 {
        clip-path: url(#clippath);
      }
    </style>
    <clipPath id="clippath">
      <rect class="cls-5" x="306.67" y="260.2" width="106.67" height="106.67" rx="6.67" ry="6.67"/>
    </clipPath>
    <clipPath id="clippath-1">
      <rect class="cls-5" x="306.67" y="373.33" width="106.67" height="106.67" rx="6.67" ry="6.67"/>
    </clipPath>
  </defs>
  <rect class="cls-2" width="720" height="480.26"/>
  <g class="cls-7">
    <rect class="cls-8" x="413.33" y="125.21" width="106.67" height="106.67" rx="6.67" ry="6.67"/>
    <g>
      <circle class="cls-4" cx="439.33" cy="181.21" r="13.33"/>
      <circle cx="439.33" cy="181.21" r="8.67"/>
    </g>
    <g>
      <circle class="cls-4" cx="494.67" cy="181.21" r="13.33"/>
      <circle cx="494.67" cy="181.21" r="8.67"/>
    </g>
  </g>
  <g class="cls-12">
    <rect class="cls-8" x="326" y="125.72" width="106.67" height="106.67" rx="6.67" ry="6.67"/>
    <g>
      <circle class="cls-4" cx="352" cy="181.72" r="13.33"/>
      <circle cx="352" cy="181.72" r="8.67"/>
    </g>
    <g>
      <circle class="cls-4" cx="407.33" cy="181.72" r="13.33"/>
      <circle cx="407.33" cy="181.72" r="8.67"/>
    </g>
  </g>
  <g class="cls-15">
    <rect class="cls-8" x="232" y="125.72" width="106.67" height="106.67" rx="6.67" ry="6.67"/>
    <g>
      <circle class="cls-4" cx="258" cy="181.72" r="13.33"/>
      <circle cx="258" cy="181.72" r="8.67"/>
    </g>
    <g>
      <circle class="cls-4" cx="313.33" cy="181.72" r="13.33"/>
      <circle cx="313.33" cy="181.72" r="8.67"/>
    </g>
  </g>
  <g class="cls-6">
    <rect class="cls-8" x="167.33" y="125.72" width="106.67" height="106.67" rx="6.67" ry="6.67"/>
    <g>
      <circle class="cls-4" cx="193.33" cy="181.72" r="13.33"/>
      <circle cx="193.33" cy="181.72" r="8.67"/>
    </g>
    <g>
      <circle class="cls-4" cx="248.67" cy="181.72" r="13.33"/>
      <circle cx="248.67" cy="181.72" r="8.67"/>
    </g>
  </g>
  <g class="cls-14">
    <rect class="cls-8" x="486" y="125.72" width="106.67" height="106.67" rx="6.67" ry="6.67"/>
    <g>
      <circle class="cls-4" cx="512" cy="181.72" r="13.33"/>
      <circle cx="512" cy="181.72" r="8.67"/>
    </g>
    <g>
      <circle class="cls-4" cx="567.33" cy="181.72" r="13.33"/>
      <circle cx="567.33" cy="181.72" r="8.67"/>
    </g>
  </g>
  <g class="cls-9">
    <rect class="cls-8" x="486" y="214.04" width="106.67" height="106.67" rx="6.67" ry="6.67"/>
    <g>
      <circle class="cls-4" cx="512" cy="270.04" r="13.33"/>
      <circle cx="512" cy="270.04" r="8.67"/>
    </g>
    <g>
      <circle class="cls-4" cx="567.33" cy="270.04" r="13.33"/>
      <circle cx="567.33" cy="270.04" r="8.67"/>
    </g>
  </g>
  <g>
    <rect class="cls-8" x="486" y="309.47" width="106.67" height="106.67" rx="6.67" ry="6.67"/>
    <g>
      <circle class="cls-4" cx="512" cy="365.47" r="13.33"/>
      <circle cx="512" cy="365.47" r="8.67"/>
    </g>
    <g>
      <circle class="cls-4" cx="567.33" cy="365.47" r="13.33"/>
      <circle cx="567.33" cy="365.47" r="8.67"/>
    </g>
  </g>
  <g class="cls-16">
    <g>
      <rect class="cls-1" x="306.67" y="260.2" width="106.67" height="106.67"/>
      <polygon class="cls-13" points="426.67 331.54 320 366.87 426.87 366.87 426.67 331.54"/>
      <polygon class="cls-11" points="292.2 295.54 398.87 260.2 292 260.2 292.2 295.54"/>
    </g>
  </g>
  <rect class="cls-3" x="307.24" y="260.2" width="106.09" height="106.67" rx="13.57" ry="13.57"/>
  <g class="cls-10">
    <g>
      <rect class="cls-1" x="306.67" y="373.33" width="106.67" height="106.67"/>
      <polygon class="cls-13" points="426.67 444.67 320 480 426.87 480 426.67 444.67"/>
      <polygon class="cls-11" points="292.2 408.67 398.87 373.33 292 373.33 292.2 408.67"/>
    </g>
  </g>
  <rect class="cls-3" x="307.24" y="373.33" width="106.09" height="106.67" rx="13.57" ry="13.57"/>
</svg>