<?xml version="1.0" encoding="UTF-8"?>
<svg id="_레이어_3" data-name="레이어 3" xmlns="http://www.w3.org/2000/svg" xmlns:xlink="http://www.w3.org/1999/xlink" viewBox="0 0 720 480">
  <defs>
    <style>
      .cls-1 {
        fill: #c93300;
      }

      .cls-2 {
        stroke-width: 3.33px;
      }

      .cls-2, .cls-3 {
        stroke: #000;
        stroke-miterlimit: 10;
      }

      .cls-2, .cls-4 {
        fill: #fff;
      }

      .cls-3 {
        stroke-width: 6.67px;
      }

      .cls-3, .cls-5 {
        fill: none;
      }

      .cls-6 {
        opacity: .05;
      }

      .cls-7 {
        opacity: .4;
      }

      .cls-8 {
        fill: #2088ca;
      }

      .cls-9 {
        opacity: .8;
      }

      .cls-10 {
        clip-path: url(#clippath-1);
      }

      .cls-11 {
        fill: #db862b;
      }

      .cls-12 {
        opacity: .2;
      }

      .cls-13 {
        fill: #861f00;
      }

      .cls-14 {
        opacity: .6;
      }

      .cls-15 {
        opacity: .1;
      }

      .cls-16 {
        clip-path: url(#clippath);
      }
    </style>
    <clipPath id="clippath">
      <rect class="cls-5" x="306.67" y="260.2" width="106.67" height="106.67" rx="6.67" ry="6.67"/>
    </clipPath>
    <clipPath id="clippath-1">
      <rect class="cls-5" x="306.67" y="373.33" width="106.67" height="106.67" rx="6.67" ry="6.67"/>
    </clipPath>
  </defs>
  <rect class="cls-2" width="720" height="480.26"/>
  <g class="cls-7">
    <rect class="cls-8" x="356.43" y="60.54" width="106.67" height="106.67" rx="6.67" ry="6.67"/>
    <g>
      <circle class="cls-4" cx="382.43" cy="116.54" r="13.33"/>
      <circle cx="382.43" cy="116.54" r="8.67"/>
    </g>
    <g>
      <circle class="cls-4" cx="437.76" cy="116.54" r="13.33"/>
      <circle cx="437.76" cy="116.54" r="8.67"/>
    </g>
  </g>
  <g class="cls-12">
    <rect class="cls-8" x="253.33" y="49.87" width="106.67" height="106.67" rx="6.67" ry="6.67"/>
    <g>
      <circle class="cls-4" cx="279.33" cy="105.87" r="13.33"/>
      <circle cx="279.33" cy="105.87" r="8.67"/>
    </g>
    <g>
      <circle class="cls-4" cx="334.67" cy="105.87" r="13.33"/>
      <circle cx="334.67" cy="105.87" r="8.67"/>
    </g>
  </g>
  <g class="cls-15">
    <rect class="cls-8" x="186" y="113.87" width="106.67" height="106.67" rx="6.67" ry="6.67"/>
    <g>
      <circle class="cls-4" cx="212" cy="169.87" r="13.33"/>
      <circle cx="212" cy="169.87" r="8.67"/>
    </g>
    <g>
      <circle class="cls-4" cx="267.33" cy="169.87" r="13.33"/>
      <circle cx="267.33" cy="169.87" r="8.67"/>
    </g>
  </g>
  <g class="cls-6">
    <rect class="cls-8" x="145.33" y="206.87" width="106.67" height="106.67" rx="6.67" ry="6.67"/>
    <g>
      <circle class="cls-4" cx="171.33" cy="262.87" r="13.33"/>
      <circle cx="171.33" cy="262.87" r="8.67"/>
    </g>
    <g>
      <circle class="cls-4" cx="226.67" cy="262.87" r="13.33"/>
      <circle cx="226.67" cy="262.87" r="8.67"/>
    </g>
  </g>
  <g class="cls-14">
    <rect class="cls-8" x="415.6" y="129.06" width="106.67" height="106.67" rx="6.67" ry="6.67"/>
    <g>
      <circle class="cls-4" cx="441.6" cy="185.06" r="13.33"/>
      <circle cx="441.6" cy="185.06" r="8.67"/>
    </g>
    <g>
      <circle class="cls-4" cx="496.94" cy="185.06" r="13.33"/>
      <circle cx="496.94" cy="185.06" r="8.67"/>
    </g>
  </g>
  <g class="cls-9">
    <rect class="cls-8" x="474.67" y="220.67" width="106.67" height="106.67" rx="6.67" ry="6.67"/>
    <g>
      <circle class="cls-4" cx="500.67" cy="276.67" r="13.33"/>
      <circle cx="500.67" cy="276.67" r="8.67"/>
    </g>
    <g>
      <circle class="cls-4" cx="556" cy="276.67" r="13.33"/>
      <circle cx="556" cy="276.67" r="8.67"/>
    </g>
  </g>
  <g>
    <rect class="cls-8" x="508.67" y="323.54" width="106.67" height="106.67" rx="6.67" ry="6.67"/>
    <g>
      <circle class="cls-4" cx="534.67" cy="379.54" r="13.33"/>
      <circle cx="534.67" cy="379.54" r="8.67"/>
    </g>
    <g>
      <circle class="cls-4" cx="590" cy="379.54" r="13.33"/>
      <circle cx="590" cy="379.54" r="8.67"/>
    </g>
  </g>
  <g class="cls-16">
    <g>
      <rect class="cls-1" x="306.67" y="260.2" width="106.67" height="106.67"/>
      <polygon class="cls-13" points="426.67 331.54 320 366.87 426.87 366.87 426.67 331.54"/>
      <polygon class="cls-11" points="292.2 295.54 398.87 260.2 292 260.2 292.2 295.54"/>
    </g>
  </g>
  <rect class="cls-3" x="307.24" y="260.2" width="106.09" height="106.67" rx="13.57" ry="13.57"/>
  <g class="cls-10">
    <g>
      <rect class="cls-1" x="306.67" y="373.33" width="106.67" height="106.67"/>
      <polygon class="cls-13" points="426.67 444.67 320 480 426.87 480 426.67 444.67"/>
      <polygon class="cls-11" points="292.2 408.67 398.87 373.33 292 373.33 292.2 408.67"/>
    </g>
  </g>
  <rect class="cls-3" x="307.24" y="373.33" width="106.09" height="106.67" rx="13.57" ry="13.57"/>
</svg>