<?xml version="1.0" encoding="UTF-8"?>
<svg id="_레이어_3" data-name="레이어 3" xmlns="http://www.w3.org/2000/svg" viewBox="0 0 160 160">
  <defs>
    <style>
      .cls-1 {
        fill: gray;
      }
    </style>
  </defs>
  <path class="cls-1" d="M150.2.2h-12c-1.38,0-2.5,1.12-2.5,2.5s1.12,2.5,2.5,2.5h12c1.38,0,2.5-1.12,2.5-2.5s-1.12-2.5-2.5-2.5h0ZM126.2.2h-12c-1.38,0-2.5,1.12-2.5,2.5s1.12,2.5,2.5,2.5h12c1.38,0,2.5-1.12,2.5-2.5s-1.12-2.5-2.5-2.5h0ZM102.2.2h-12c-1.38,0-2.5,1.12-2.5,2.5s1.12,2.5,2.5,2.5h12c1.38,0,2.5-1.12,2.5-2.5s-1.12-2.5-2.5-2.5h0ZM78.2.2h-12c-1.38,0-2.5,1.12-2.5,2.5s1.12,2.5,2.5,2.5h12c1.38,0,2.5-1.12,2.5-2.5s-1.12-2.5-2.5-2.5h0ZM54.2.2h-12c-1.38,0-2.5,1.12-2.5,2.5s1.12,2.5,2.5,2.5h12c1.38,0,2.5-1.12,2.5-2.5s-1.12-2.5-2.5-2.5h0ZM30.2.2h-12c-1.38,0-2.5,1.12-2.5,2.5s1.12,2.5,2.5,2.5h12c1.38,0,2.5-1.12,2.5-2.5S31.58.2,30.2.2h0ZM7.28.79c-.32,0-.65.06-.97.2C3.38,2.22,1.17,4.81.45,7.97H.45s0,.02,0,.03H.44s0,.01,0,.02H.44s0,.03,0,.04c0,0,0,0,0,0,0,0,0,.02,0,.03t0,0s0,0,0,.01h0s0,.02,0,.03H.41s0,.01,0,.01h0s0,.02,0,.03c0,0,0,0,0,0,0,0,0,0,0,.01,0,0,0,0,0,0,0,0,0,.02,0,.03t0,0s0,0,0,.01c0,0,0,0,0,0,0,0,0,.02,0,.03h0s0,.01,0,.01c0,0,0,0,0,0,0,.01,0,.02,0,.03h0s0,.01,0,.01c0,0,0,0,0,0,0,0,0,.02,0,.03,0,0,0,0,0,0,0,0,0,0,0,.01,0,0,0,0,0,0,0,0,0,.02,0,.03h0s0,.01,0,.01h0s0,.02,0,.03c0,0,0,0,0,0,0,0,0,0,0,.01,0,0,0,0,0,0v.03s0,0,0,0c0,0,0,0,0,.01,0,0,0,0,0,0,0,0,0,.02,0,.03,0,0,0,0,0,0,0,0,0,0,0,.01,0,0,0,0,0,0,0,0,0,.02,0,.03,0,0,0,0,0,0,0,0,0,0,0,.01h0s0,.02,0,.03c0,0,0,0,0,0,0,0,0,0,0,.01,0,0,0,0,0,0,0,0,0,.02,0,.03,0,0,0,0,0,0,0,0,0,0,0,.01,0,0,0,0,0,0,0,0,0,.02,0,.03h0s0,.01,0,.02c0,0,0,0,0,0,0,0,0,.02,0,.03,0,0,0,0,0,0,0,0,0,0,0,.01,0,0,0,0,0,0,0,0,0,.02,0,.03,0,0,0,0,0,0,0,0,0,0,0,.01,0,0,0,0,0,0,0,0,0,.02,0,.03h0s0,.01,0,.01h0s0,.02,0,.03c0,0,0,0,0,0,0,0,0,0,0,.01h0s0,.02,0,.03c0,0,0,0,0,0,0,0,0,0,0,.01,0,0,0,0,0,0,0,0,0,.02,0,.03h0s0,.01,0,.01c0,0,0,0,0,0,0,0,0,.02,0,.03,0,0,0,0,0,0,0,0,0,0,0,.01,0,0,0,0,0,0,0,0,0,.02,0,.03,0,0,0,0,0,0,0,0,0,0,0,.01,0,0,0,0,0,0,0,0,0,.02,0,.03,0,0,0,0,0,0,0,0,0,0,0,.01h0s0,.02,0,.03h0s0,.01,0,.01c0,0,0,0,0,0,0,.01,0,.02,0,.03h0s0,.01,0,.01c0,0,0,0,0,0v.03s0,0,0,0c0,0,0,0,0,.01,0,0,0,0,0,0,0,0,0,.02,0,.03h0s0,.01,0,.01c0,0,0,0,0,0,0,0,0,.02,0,.03,0,0,0,0,0,0,0,0,0,0,0,.01,0,0,0,0,0,0,0,0,0,.02,0,.03,0,0,0,0,0,0,0,0,0,0,0,.01,0,0,0,0,0,0,0,.01,0,.02,0,.03,0,0,0,0,0,0,0,0,0,0,0,.01,0,0,0,0,0,0,0,.01,0,.02,0,.03,0,0,0,0,0,0,0,0,0,0,0,.01,0,0,0,0,0,0,0,0,0,.02,0,.03,0,0,0,0,0,0,0,0,0,0,0,.01,0,0,0,0,0,0,0,0,0,.02,0,.03,0,0,0,0,0,0,0,0,0,0,0,.01,0,0,0,0,0,0,0,0,0,.02,0,.03,0,0,0,0,0,0,0,0,0,0,0,.01,0,0,0,0,0,0,0,0,0,.02,0,.03,0,0,0,0,0,0,0,0,0,0,0,.01,0,0,0,0,0,0,0,0,0,.02,0,.03,0,0,0,0,0,0,0,0,0,0,0,.01,0,0,0,0,0,0,0,.01,0,.02,0,.03,0,0,0,0,0,0,0,0,0,0,0,.01,0,0,0,0,0,0,0,0,0,.02,0,.03,0,0,0,0,0,0,0,0,0,0,0,.01,0,0,0,0,0,0,0,0,0,.02,0,.03,0,0,0,0,0,0,0,0,0,0,0,.01,0,0,0,0,0,0,0,0,0,0,0,.01H.2s0,.01,0,.01c0,0,0,0,0,0,0,0,0,0,0,.01,0,0,0,0,0,0,0,0,0,.02,0,.03,0,0,0,0,0,0,0,0,0,0,0,.01,0,0,0,0,0,0,0,0,0,.02,0,.03,0,0,0,0,0,0,0,0,0,0,0,.01H.2s0,.02,0,.03c0,0,0,0,0,0H.2v.02s0,.02,0,.03H.2v.02H.2v.31c0,1.38,1.12,2.5,2.5,2.5s2.5-1.12,2.5-2.5v-.29c0-2.01,1.2-3.82,3.05-4.61,1.27-.54,1.87-2.01,1.33-3.28-.4-.95-1.33-1.53-2.3-1.53h0ZM2.7,19.99c-1.38,0-2.5,1.12-2.5,2.5v12c0,1.38,1.12,2.5,2.5,2.5s2.5-1.12,2.5-2.5v-12c0-1.38-1.12-2.5-2.5-2.5h0ZM2.7,43.99c-1.38,0-2.5,1.12-2.5,2.5v12c0,1.38,1.12,2.5,2.5,2.5s2.5-1.12,2.5-2.5v-12c0-1.38-1.12-2.5-2.5-2.5h0ZM2.7,67.99c-1.38,0-2.5,1.12-2.5,2.5v12c0,1.38,1.12,2.5,2.5,2.5s2.5-1.12,2.5-2.5v-12c0-1.38-1.12-2.5-2.5-2.5h0ZM2.7,91.99c-1.38,0-2.5,1.12-2.5,2.5v12c0,1.38,1.12,2.5,2.5,2.5s2.5-1.12,2.5-2.5v-12c0-1.38-1.12-2.5-2.5-2.5h0ZM2.7,115.99c-1.38,0-2.5,1.12-2.5,2.5v12c0,1.38,1.12,2.5,2.5,2.5s2.5-1.12,2.5-2.5v-12c0-1.38-1.12-2.5-2.5-2.5h0ZM2.7,139.99c-1.38,0-2.5,1.12-2.5,2.5v7.73H.2v.02s0,0,0,0H.2v.02s0,0,0,0H.2s0,.01,0,.02H.2s0,.01,0,.02c0,0,0,0,0,0,0,0,0,0,0,0H.2s0,.01,0,.02c0,0,0,0,0,0,0,0,0,0,0,0,0,0,0,0,0,0,0,0,0,0,0,0,0,0,0,0,0,0,0,0,0,0,0,0,0,0,0,0,0,0,0,0,0,0,0,.01,0,0,0,0,0,0,0,0,0,0,0,.01H.2s0,.01,0,.02c0,0,0,0,0,0,0,0,0,0,0,.01,0,0,0,0,0,0,0,0,0,0,0,.01,0,0,0,0,0,0,0,0,0,0,0,0,0,0,0,0,0,0,0,0,0,0,0,0,0,0,0,0,0,0,0,0,0,0,0,0,0,0,0,0,0,0s0,0,0,0,0,0,0,0c0,0,0,0,0,0,0,0,0,0,0,0,0,0,0,0,0,0s0,0,0,0c0,0,0,0,0,0,0,0,0,0,0,0,0,0,0,0,0,0s0,0,0,0h0s0,.01,0,.02c0,0,0,0,0,0,0,0,0,0,0,0,0,0,0,.01,0,.02,0,0,0,0,0,0,0,0,0,0,0,0,0,0,0,0,0,0,0,0,0,0,0,0,0,0,0,0,0,0,0,0,0,0,0,0s0,0,0,0h0s0,.01,0,.02c0,0,0,0,0,0,0,0,0,0,0,0,0,0,0,0,0,0,0,0,0,0,0,0,0,0,0,0,0,0,0,0,0,0,0,0,0,0,0,0,0,0,0,0,0,0,0,0,0,0,0,0,0,0,0,0,0,0,0,0,0,0,0,0,0,0,0,0,0,0,0,0,0,0,0,0,0,0,0,0,0,0,0,0,0,0,0,0,0,0,0,0,0,0,0,.01,0,0,0,0,0,0,0,0,0,.02,0,.03,0,0,0,0,0,0,0,0,0,0,0,0,0,0,0,0,0,0,0,0,0,0,0,0,0,0,0,0,0,0h0s0,.01,0,.02c0,0,0,0,0,0,0,0,0,0,0,0,0,0,0,0,0,0s0,0,0,0h0s0,.01,0,.02c0,0,0,0,0,0,0,0,0,0,0,0,0,0,0,0,0,0,0,0,0,0,0,0,0,0,0,0,0,0,0,0,0,0,0,0,0,0,0,0,0,0,0,0,0,0,0,0,0,0,0,0,0,0,0,0,0,0,0,0,0,0,0,0,0,.01h0s0,.03,0,.04c0,0,0,0,0,0,0,0,0,0,0,.01,0,0,0,0,0,0,0,0,0,0,0,.01,0,0,0,0,0,0,0,0,0,0,0,.01,0,0,0,0,0,0,0,0,0,0,0,0,0,0,0,0,0,0,0,0,0,0,0,0,0,0,0,0,0,0,0,0,0,0,0,0,0,0,0,0,0,0,0,0,0,0,0,.01,0,0,0,0,0,0,0,0,0,0,0,.01,0,0,0,0,0,0,0,0,0,0,0,.01,0,0,0,0,0,0,0,0,0,0,0,.01,0,0,0,0,0,0,0,.02,0,.05,0,.07,0,0,0,0,0,0,0,0,0,0,0,.01,0,0,0,0,0,0,0,0,0,0,0,.01,0,0,0,0,0,0,0,0,0,0,0,.01,0,0,0,0,0,0,0,0,0,0,0,.01,0,0,0,0,0,0,0,0,0,0,0,.01,0,0,0,0,0,0,0,0,0,0,0,.01,0,0,0,0,0,0,0,0,0,0,0,.01,0,0,0,0,0,0h0s0,.01,0,.02c0,0,0,0,0,.01,0,0,0,0,0,0,0,.03,0,.05.01.08t0,0s0,0,0,.01c0,0,0,0,0,0,0,0,0,0,0,.01,0,0,0,0,0,0,0,0,0,0,0,.01,0,0,0,0,0,0,0,0,0,0,0,.01,0,0,0,0,0,0,0,0,0,0,0,.01,0,0,0,0,0,0,0,0,0,0,0,.01,0,0,0,0,0,0,0,0,0,0,0,.01,0,0,0,0,0,0,0,0,0,0,0,.01,0,0,0,0,0,0,0,0,0,0,0,.01,0,0,0,0,0,0,0,.04.01.07.02.11,0,0,0,0,0,0,0,0,0,0,0,.01,0,0,0,0,0,0,0,0,0,0,0,.01,0,0,0,0,0,0,0,0,0,0,0,.01,0,0,0,0,0,0,0,0,0,0,0,.01,0,0,0,0,0,0h0s0,.01,0,.02c0,0,0,0,0,.01h0s0,.01,0,.02c0,0,0,0,0,0,0,.04.01.07.02.11,0,0,0,0,0,0,0,0,0,0,0,.01,0,0,0,0,0,0,0,0,0,0,0,.01,0,0,0,0,0,0,0,0,0,0,0,.01,0,0,0,0,0,0,0,0,0,0,0,.01,0,0,0,0,0,0,0,0,0,0,0,.01,0,0,0,0,0,0,0,0,0,0,0,.01,0,0,0,0,0,0,0,0,0,0,0,.01,0,0,0,0,0,0,0,.03.01.07.02.11t0,0s0,0,0,.01c0,0,0,0,0,0,0,0,0,0,0,.01,0,0,0,0,0,0,0,0,0,0,0,.01,0,0,0,0,0,0,0,0,0,0,0,.01h0s0,.01,0,.02c0,0,0,0,0,0,0,0,0,0,0,.01,0,0,0,0,0,0,0,0,0,0,0,.01,0,0,0,0,0,0,0,.04.02.08.03.12,0,0,0,0,0,0,0,0,0,0,0,.01,0,0,0,0,0,0,0,0,0,0,0,.01,0,0,0,0,0,0,0,0,0,0,0,.01,0,0,0,0,0,0,0,0,0,0,0,.01h0s0,.01,0,.02c0,0,0,0,0,0h0s0,.01,0,.01h0s0,.01,0,.01c0,.03.01.06.02.09,0,0,0,0,0,0,0,0,0,0,0,.01h0s0,.01,0,.01c0,0,0,0,0,0,0,0,0,0,0,.01,0,0,0,0,0,0,0,0,0,0,0,.01,0,0,0,0,0,0,0,0,0,0,0,.01,0,0,0,0,0,0,0,0,0,0,0,.01,0,0,0,0,0,0,0,0,0,0,0,.01,0,0,0,0,0,0,0,0,0,0,0,.01,0,0,0,0,0,0,0,0,0,0,0,.01h0s.01.05.02.07c0,0,0,0,0,0,0,0,0,0,0,.01,0,0,0,0,0,0,0,0,0,0,0,.01,0,0,0,0,0,0,0,0,0,0,0,.01,0,0,0,0,0,0,0,0,0,0,0,.01,0,0,0,0,0,0h0s0,.01,0,.02h0s0,.01,0,.02c0,0,0,0,0,.01,0,0,0,0,0,0,0,0,0,0,0,.01,0,0,0,0,0,0,0,0,0,0,0,.01,0,0,0,0,0,0,0,0,0,0,0,.01,0,0,0,0,0,0,0,.02.01.03.02.05h0s0,.01,0,.01c0,0,0,0,0,0,0,0,0,0,0,0,0,0,0,0,0,0h0s0,.01,0,.02c0,0,0,0,0,0,0,0,0,0,0,0,0,0,0,0,0,0,0,0,0,0,0,0,0,0,0,0,0,0,0,0,0,0,0,0,0,0,0,0,0,0h0s0,.01,0,.01c0,0,0,0,0,0,0,0,0,0,0,0,0,0,0,0,0,0,0,0,0,0,0,0h0s0,.01,0,.02c0,0,0,.01,0,.02h0s0,.01,0,.02c0,0,0,0,0,0,0,0,0,0,0,.01,0,0,0,0,0,0,0,0,0,0,0,.01,0,0,0,0,0,0,0,0,0,0,0,.01,0,0,0,0,0,0,0,0,0,0,0,.01,0,0,0,0,0,0,0,0,0,0,0,0,0,0,0,0,0,0,0,0,0,0,0,.01,0,0,0,0,0,0,0,0,0,0,0,.01,0,0,0,0,0,0,0,0,0,0,0,.01,0,0,0,0,0,0,0,0,0,0,0,.01,0,0,0,0,0,0,0,0,0,0,0,.01,0,0,0,0,0,0,0,.03.02.05.03.08,0,0,0,0,0,0h0s0,.02,0,.02c0,0,0,0,0,.01,0,0,0,0,0,0,0,0,0,0,0,.01,0,0,0,0,0,0,0,0,0,0,0,.01,0,0,0,0,0,0,0,0,0,0,0,.01t0,0s0,0,0,.01h0c.09.25.19.49.3.73.42.92,1.33,1.46,2.27,1.46.35,0,.7-.07,1.04-.23,1.26-.57,1.81-2.06,1.23-3.31-.3-.65-.45-1.35-.45-2.08v-7.71c0-1.38-1.12-2.5-2.5-2.5h0ZM22.78,155.2h-12c-1.38,0-2.5,1.12-2.5,2.5s1.12,2.5,2.5,2.5h12c1.38,0,2.5-1.12,2.5-2.5s-1.12-2.5-2.5-2.5h0ZM46.78,155.2h-12c-1.38,0-2.5,1.12-2.5,2.5s1.12,2.5,2.5,2.5h12c1.38,0,2.5-1.12,2.5-2.5s-1.12-2.5-2.5-2.5h0ZM70.78,155.2h-12c-1.38,0-2.5,1.12-2.5,2.5s1.12,2.5,2.5,2.5h12c1.38,0,2.5-1.12,2.5-2.5s-1.12-2.5-2.5-2.5h0ZM94.78,155.2h-12c-1.38,0-2.5,1.12-2.5,2.5s1.12,2.5,2.5,2.5h12c1.38,0,2.5-1.12,2.5-2.5s-1.12-2.5-2.5-2.5h0ZM118.78,155.2h-12c-1.38,0-2.5,1.12-2.5,2.5s1.12,2.5,2.5,2.5h12c1.38,0,2.5-1.12,2.5-2.5s-1.12-2.5-2.5-2.5h0ZM142.78,155.2h-12c-1.38,0-2.5,1.12-2.5,2.5s1.12,2.5,2.5,2.5h12c1.38,0,2.5-1.12,2.5-2.5s-1.12-2.5-2.5-2.5h0ZM157.7,146.83c-1.38,0-2.5,1.12-2.5,2.5v.87c0,1.92-1.07,3.64-2.79,4.49-1.24.61-1.75,2.11-1.13,3.35.44.88,1.32,1.39,2.24,1.39.37,0,.75-.08,1.1-.26,0,0,.02,0,.02-.01,0,0,0,0,0,0,0,0,0,0,.01,0,0,0,0,0,0,0,0,0,0,0,.01,0h0s0,0,.01,0c0,0,0,0,0,0,0,0,0,0,.01,0h0s0,0,.01,0c0,0,0,0,0,0h.01s0,0,0,0c0,0,0,0,.01,0,0,0,0,0,0,0,0,0,0,0,.01,0,0,0,0,0,0,0,0,0,0,0,.01,0,0,0,0,0,0,0,0,0,0,0,.01,0,0,0,0,0,0,0,0,0,0,0,0,0h0s0,0,.01,0h0s0,0,0,0c0,0,0,0,0,0,0,0,0,0,0,0,0,0,0,0,0,0,0,0,0,0,.01,0,0,0,0,0,0,0,0,0,0,0,0,0,0,0,0,0,0,0,0,0,0,0,.01,0,0,0,0,0,0,0,0,0,0,0,0,0,0,0,0,0,0,0,0,0,0,0,0,0,0,0,0,0,0,0,0,0,0,0,0,0,0,0,0,0,0,0,0,0,0,0,0,0,0,0,0,0,0,0,0,0,0,0,.01,0,0,0,0,0,0,0,0,0,0,0,0,0,0,0,0,0,0,0,0,0,0,0,0,0,0,0,0,0,0,0,0,0,0,0,0,0,0,0,0,0,0,0,0,0,0,0,0,0,0,0,0,0,0,0,0,0,0,0,.01,0,0,0,0,0,0,0,0,0,0,0,0,0s0,0,0,0c0,0,0,0,0,0,0,0,0,0,0,0,0,0,0,0,0,0,0,0,0,0,0,0,0,0,0,0,0,0,0,0,0,0,0,0,0,0,0,0,0,0,0,0,0,0,0,0,0,0,0,0,0,0,0,0,0,0,0,0,0,0,0,0,0,0,0,0,0,0,.01,0,0,0,0,0,0,0h0s0,0,0,0c0,0,.02,0,.02-.01,0,0,0,0,0,0,0,0,0,0,0,0,0,0,0,0,0,0,0,0,0,0,.01,0,0,0,0,0,0,0,0,0,0,0,0,0,0,0,0,0,0,0,0,0,.02,0,.02-.01,0,0,0,0,0,0,0,0,0,0,0,0,0,0,0,0,0,0,0,0,0,0,.01,0,0,0,0,0,0,0,0,0,0,0,0,0,0,0,0,0,0,0,0,0,.02,0,.02-.01,0,0,0,0,0,0,0,0,0,0,0,0,0,0,0,0,0,0,0,0,.01,0,.02,0,0,0,0,0,0,0,0,0,0,0,0,0,0,0,0,0,0,0,0,0,.02-.01.03-.02,0,0,0,0,0,0,0,0,.02-.01.03-.02,0,0,0,0,0,0,0,0,0,0,0,0,0,0,0,0,0,0,0,0,.02-.01.03-.02,0,0,0,0,0,0,0,0,.02-.01.03-.02,0,0,0,0,0,0,.01,0,.02-.01.04-.02h0s.04-.03.06-.04h0c1.63-1.03,2.94-2.52,3.76-4.28t0,0s.01-.03.02-.04c0,0,0,0,0,0,.01-.03.03-.06.04-.1h0s.02-.05.03-.07h0s.02-.05.03-.07h0s.01-.03.02-.04c0,0,0,0,0,0,0,0,0-.02.01-.03,0,0,0,0,0,0,0,0,0-.02.01-.03,0,0,0,0,0,0,0-.01.01-.03.02-.04,0,0,0,0,0,0,0,0,0-.02.01-.03,0,0,0,0,0,0,0,0,0,0,0,0t0,0s0-.02.01-.03c0,0,0,0,0,0,0,0,0-.02.01-.03,0,0,0,0,0,0,0,0,0,0,0,0h0s0-.01,0-.02t0,0s0,0,0,0c0,0,0,0,0,0,0,0,0-.02.01-.03,0,0,0,0,0,0,0,0,0,0,0,0,0,0,0,0,0,0,0,0,0-.01,0-.02,0,0,0,0,0,0,0,0,0,0,0,0,0,0,0,0,0,0,0,0,0-.02.01-.03,0,0,0,0,0,0,0,0,0,0,0,0h0s0-.01,0-.02c0,0,0,0,0,0,0,0,0,0,0,0,0,0,0,0,0,0,0,0,0-.02,0-.03,0,0,0,0,0,0,0,0,0,0,0,0,0,0,0,0,0,0,0,0,0-.01,0-.02,0,0,0,0,0,0,0,0,0,0,0,0,0,0,0,0,0,0,0,0,0-.02,0-.03,0,0,0,0,0,0,0,0,0,0,0,0,0,0,0,0,0,0,0,0,0-.01,0-.02,0,0,0,0,0,0,0,0,0,0,0,0,0,0,0,0,0,0,0,0,0-.02,0-.03,0,0,0,0,0,0,0,0,0,0,0,0,0,0,0,0,0,0,0,0,0-.01,0-.02,0,0,0,0,0,0,0,0,0,0,0,0,0,0,0,0,0,0,0,0,0-.02,0-.03,0,0,0,0,0,0,0,0,0,0,0,0,0,0,0,0,0,0,0,0,0-.01,0-.02,0,0,0,0,0,0,0,0,0,0,0,0,0,0,0,0,0,0,0,0,0,0,0-.01,0,0,0,0,0,0,0,0,0,0,0,0,0,0,0,0,0,0,0,0,0,0,0,0,0,0,0,0,0,0,0,0,0,0,0-.01,0,0,0,0,0,0,0,0,0,0,0,0,0,0,0,0,0,0,0,0,0-.01,0-.02,0,0,0,0,0,0,0,0,0,0,0,0,0,0,0,0,0,0,0,0,0,0,0,0,0,0,0,0,0,0,0,0,0-.01,0-.02,0,0,0,0,0,0,0,0,0,0,0,0,0,0,0,0,0,0,0,0,0,0,0-.01,0,0,0,0,0,0,0,0,0,0,0,0,0,0,0,0,0,0,0,0,0,0,0,0,0,0,0,0,0,0,0,0,0,0,0-.01,0,0,0,0,0,0,0,0,0,0,0,0,0,0,0,0,0,0,0,0,0,0,0-.01,0,0,0,0,0,0h0s0-.01,0-.01c0,0,0,0,0,0h0s0-.02,0-.02c0,0,0,0,0,0s0,0,0,0,0,0,0,0c0,0,0,0,0-.01h0s0-.01,0-.01c0,0,0,0,0,0,0,0,0,0,0,0,0,0,0,0,0-.01,0,0,0,0,0,0,0,0,0,0,0,0,0,0,0,0,0,0,0,0,0,0,0,0,0,0,0,0,0,0,0,0,0,0,0,0,0,0,0,0,0,0,0,0,0,0,0,0,0,0,0,0,0,0,0,0,0,0,0-.01h0s0-.01,0-.01,0,0,0,0,0,0,0,0c0,0,0,0,0-.01,0,0,0,0,0,0s0,0,0,0,0,0,0,0c0,0,0,0,0,0,0,0,0,0,0-.01,0,0,0,0,0,0,0,0,0,0,0,0,0,0,0,0,0,0,0,0,0,0,0,0,0,0,0,0,0,0,0,0,0,0,0,0,0,0,0,0,0,0s0,0,0,0c0,0,0,0,0,0,0,0,0,0,0-.01,0,0,0,0,0,0,0,0,0,0,0,0s0,0,0,0c0,0,0,0,0,0s0,0,0,0c0,0,0,0,0,0,0,0,0,0,0,0,0,0,0,0,0,0,0,0,0,0,0,0,0,0,0,0,0-.01,0,0,0,0,0,0,0,0,0,0,0,0,0,0,0,0,0,0,0,0,0,0,0,0,0,0,0,0,0,0,0,0,0,0,0,0h0s0-.01,0-.01c0,0,0,0,0,0,0,0,0,0,0-.01,0,0,0,0,0,0h0s0-.01,0-.01c0,0,0,0,0-.01,0,0,0,0,0,0,0,0,0,0,0,0,0,0,0,0,0,0,0,0,0,0,0,0,0,0,0,0,0,0,0,0,0,0,0-.01,0,0,0,0,0,0,0,0,0,0,0,0h0s0-.01,0-.02c0,0,0,0,0,0,0,0,0,0,0,0,0,0,0,0,0,0,0,0,0,0,0,0,0,0,0,0,0,0,0,0,0,0,0-.01,0,0,0,0,0,0,0,0,0,0,0,0,0,0,0,0,0,0,0,0,0,0,0-.01,0,0,0,0,0,0,0,0,0,0,0,0,0,0,0,0,0,0,0,0,0,0,0,0,0,0,0,0,0,0,0,0,0,0,0-.01,0,0,0,0,0,0,0,0,0,0,0,0,0,0,0,0,0,0,0,0,0,0,0-.01,0,0,0,0,0,0,0,0,0,0,0,0,0,0,0,0,0,0,0,0,0,0,0,0,0,0,0,0,0,0,0,0,0,0,0-.01,0,0,0,0,0,0,0,0,0,0,0,0h0s0-.01,0-.02c0,0,0,0,0,0,0,0,0,0,0,0,0,0,0,0,0,0,0,0,0,0,0,0,0,0,0,0,0,0,0,0,0,0,0-.01,0,0,0,0,0,0,0,0,0,0,0,0,0,0,0,0,0,0,0,0,0,0,0-.01,0,0,0,0,0,0,0,0,0,0,0,0,0,0,0,0,0,0,0,0,0,0,0,0,0,0,0,0,0,0,0,0,0,0,0,0,0,0,0,0,0,0h0s0-.01,0-.01c0,0,0,0,0-.01,0,0,0,0,0,0,0,0,0,0,0,0h0s0-.01,0-.01c0,0,0,0,0,0,0,0,0,0,0,0,0,0,0,0,0,0,0,0,0,0,0,0,0,0,0,0,0,0,0,0,0,0,0-.01,0,0,0,0,0,0,0,0,0,0,0,0,0,0,0,0,0,0,0,0,0,0,0-.01,0,0,0,0,0,0,0,0,0,0,0-.01,0,0,0,0,0,0,0,0,0,0,0,0,0,0,0,0,0,0,0,0,0,0,0-.01,0,0,0,0,0,0,0,0,0,0,0,0,0,0,0,0,0,0h0s0-.01,0-.01c0,0,0,0,0-.01,0,0,0,0,0,0,0,0,0,0,0,0,0,0,0,0,0,0,0,0,0,0,0-.01,0,0,0,0,0,0,0,0,0,0,0,0,0,0,0,0,0,0,0,0,0,0,0-.01,0,0,0,0,0,0h0s0-.01,0-.02c0,0,0,0,0,0,0,0,0,0,0,0,0,0,0,0,0-.01,0,0,0,0,0,0,0,0,0,0,0,0,0,0,0,0,0,0,0,0,0,0,0-.01,0,0,0,0,0,0,0,0,0,0,0-.01,0,0,0,0,0,0,0,0,0,0,0-.01,0,0,0,0,0,0,0,0,0,0,0-.01,0,0,0,0,0,0,0,0,0,0,0,0,0,0,0,0,0,0,0,0,0,0,0-.01,0,0,0,0,0,0,0,0,0,0,0-.01h0s0-.01,0-.02c0,0,0,0,0,0,0,0,0,0,0-.01,0,0,0,0,0,0,0,0,0,0,0,0,0,0,0,0,0,0,0,0,0,0,0-.01,0,0,0,0,0,0,0,0,0,0,0-.01,0,0,0,0,0,0,0,0,0,0,0-.01,0,0,0,0,0,0,0,0,0,0,0-.01,0,0,0,0,0,0,0,0,0,0,0-.01,0,0,0,0,0,0,0,0,0,0,0-.01,0,0,0,0,0,0,0,0,0,0,0-.01,0,0,0,0,0,0,0,0,0,0,0-.01,0,0,0,0,0,0,0,0,0,0,0-.01,0,0,0,0,0,0,0,0,0,0,0-.01,0,0,0,0,0,0,0,0,0,0,0-.01,0,0,0,0,0,0,0,0,0,0,0-.01,0,0,0,0,0,0,0,0,0,0,0-.01,0,0,0,0,0,0,0,0,0,0,0-.01,0,0,0,0,0,0,0,0,0,0,0,0,0,0,0,0,0,0,0,0,0,0,0-.01,0,0,0,0,0,0,0,0,0,0,0-.01,0,0,0,0,0,0,0,0,0,0,0-.01,0,0,0,0,0,0,0,0,0,0,0-.01,0,0,0,0,0,0,0,0,0,0,0-.01,0,0,0,0,0,0,0,0,0,0,0-.01,0,0,0,0,0,0,0,0,0,0,0-.01,0,0,0,0,0,0,0,0,0,0,0-.01,0,0,0,0,0,0,0,0,0,0,0-.01,0,0,0,0,0,0,0,0,0,0,0-.01,0,0,0,0,0,0h0s0-.02,0-.02c0,0,0,0,0-.01,0,0,0,0,0,0,0,0,0,0,0-.01,0,0,0,0,0,0h0s0-.02,0-.02c0,0,0,0,0-.01h0s0-.01,0-.02c0,0,0,0,0,0,0,0,0,0,0-.01,0,0,0,0,0,0,0,0,0,0,0-.01,0,0,0,0,0,0,0,0,0,0,0-.01,0,0,0,0,0,0,0,0,0,0,0-.01h0s0-.01,0-.02c0,0,0,0,0,0,0,0,0,0,0-.01,0,0,0,0,0,0,0,0,0-.02,0-.03,0,0,0,0,0,0,0,0,0,0,0-.01,0,0,0,0,0,0h0s0-.02,0-.02c0,0,0,0,0-.01,0,0,0,0,0,0,0,0,0,0,0-.01,0,0,0,0,0,0,0,0,0,0,0-.01,0,0,0,0,0,0,0,0,0,0,0-.01,0,0,0,0,0,0,0,0,0,0,0-.01,0,0,0,0,0,0,0,0,0,0,0-.01,0,0,0,0,0,0h0s0-.01,0-.02c0,0,0,0,0-.01,0,0,0,0,0,0,0,0,0,0,0-.01,0,0,0,0,0,0,0,0,0,0,0-.01,0,0,0,0,0,0,0,0,0,0,0-.01,0,0,0,0,0,0,0,0,0,0,0-.01,0,0,0,0,0,0,0,0,0,0,0-.01h0s0-.01,0-.02c0,0,0,0,0,0,0,0,0,0,0-.01,0,0,0,0,0,0,0,0,0,0,0-.01,0,0,0,0,0,0,0,0,0,0,0-.01h0s0-.01,0-.01c0,0,0,0,0,0,0,0,0,0,0-.01,0,0,0,0,0,0,0,0,0,0,0-.01,0,0,0,0,0,0,0,0,0,0,0-.01,0,0,0,0,0,0,0,0,0,0,0-.01,0,0,0,0,0,0,0,0,0,0,0-.01,0,0,0,0,0,0,0,0,0,0,0-.01,0,0,0,0,0,0,0,0,0,0,0-.01,0,0,0,0,0,0,0,0,0,0,0-.01,0,0,0,0,0,0,0,0,0,0,0-.01,0,0,0,0,0,0,0,0,0,0,0-.01,0,0,0,0,0,0,0,0,0,0,0-.01,0,0,0,0,0,0,0,0,0,0,0-.01,0,0,0,0,0,0,0,0,0,0,0-.01,0,0,0,0,0,0,0,0,0,0,0-.01,0,0,0,0,0,0,0,0,0,0,0-.01,0,0,0,0,0,0,0,0,0,0,0-.01h0s0-.01,0-.02c0,0,0,0,0,0,0,0,0,0,0-.01h0s0-.01,0-.02h0s0-.01,0-.01c0,0,0,0,0,0,0,0,0,0,0-.01,0,0,0,0,0,0,0,0,0,0,0-.01,0,0,0,0,0,0,0,0,0,0,0-.01h0s0-.01,0-.02h0s0-.01,0-.01c0,0,0,0,0,0,0,0,0,0,0-.01t0,0s0,0,0-.01c0,0,0,0,0,0,0,0,0,0,0-.01h0s0-.01,0-.02h0s0-.01,0-.01h0s0-.01,0-.02h0s0-.01,0-.02h0s0-.01,0-.02h0s0-.01,0-.02h0v-.02h0v-.89c0-1.38-1.12-2.5-2.5-2.5h0ZM157.7,122.83c-1.38,0-2.5,1.12-2.5,2.5v12c0,1.38,1.12,2.5,2.5,2.5s2.5-1.12,2.5-2.5v-12c0-1.38-1.12-2.5-2.5-2.5h0ZM157.7,98.83c-1.38,0-2.5,1.12-2.5,2.5v12c0,1.38,1.12,2.5,2.5,2.5s2.5-1.12,2.5-2.5v-12c0-1.38-1.12-2.5-2.5-2.5h0ZM157.7,74.83c-1.38,0-2.5,1.12-2.5,2.5v12c0,1.38,1.12,2.5,2.5,2.5s2.5-1.12,2.5-2.5v-12c0-1.38-1.12-2.5-2.5-2.5h0ZM157.7,50.83c-1.38,0-2.5,1.12-2.5,2.5v12c0,1.38,1.12,2.5,2.5,2.5s2.5-1.12,2.5-2.5v-12c0-1.38-1.12-2.5-2.5-2.5h0ZM157.7,26.83c-1.38,0-2.5,1.12-2.5,2.5v12c0,1.38,1.12,2.5,2.5,2.5s2.5-1.12,2.5-2.5v-12c0-1.38-1.12-2.5-2.5-2.5h0ZM156.83,4.19c-.4,0-.8.09-1.17.29-1.22.65-1.68,2.16-1.04,3.38.38.72.58,1.51.58,2.34v7.13c0,1.38,1.12,2.5,2.5,2.5s2.5-1.12,2.5-2.5v-7.13h0v-.02h0v-.02s0,0,0-.01h0s0-.01,0-.02h0s0-.01,0-.02h0s0-.01,0-.02h0s0-.01,0-.02h0s0-.01,0-.02h0s0-.01,0-.02c0,0,0,0,0,0,0,0,0,0,0-.01,0,0,0,0,0,0,0,0,0,0,0-.01h0s0,0,0-.01h0s0-.01,0-.02h0s0-.01,0-.02c0,0,0,0,0,0,0,0,0,0,0-.01,0,0,0,0,0,0,0,0,0,0,0-.01h0s0-.01,0-.02h0s0-.01,0-.02h0s0-.02,0-.03c0,0,0,0,0,0,0,0,0-.01,0-.01h0s0-.01,0-.02h0s0,0,0-.01c0,0,0,0,0,0,0,0,0,0,0-.01,0,0,0,0,0,0,0,0,0,0,0-.01h0s0-.01,0-.02c0,0,0,0,0,0,0,0,0-.02,0-.03,0,0,0,0,0,0,0,0,0,0,0-.01,0,0,0,0,0,0,0,0,0-.02,0-.03h0s0-.01,0-.02c0,0,0,0,0,0,0,0,0,0,0-.01h0s0-.01,0-.02c0,0,0,0,0,0,0,0,0-.01,0-.02h0s0-.01,0-.02c0,0,0,0,0,0,0,0,0-.01,0-.02,0,0,0,0,0,0,0-.01,0-.02,0-.03h0s0-.01,0-.02h0s0-.02,0-.03h0s0-.01,0-.02h0s0-.02,0-.03c0,0,0,0,0,0,0-.01,0-.02,0-.03h0s0-.01,0-.02c0,0,0,0,0,0,0-.01,0-.02,0-.03h0s0-.01,0-.02c0,0,0,0,0,0,0-.01,0-.02,0-.03h0s0-.03,0-.05c0,0,0,0,0,0,0-.04,0-.08-.01-.13h0c-.13-1.31-.52-2.55-1.11-3.66-.45-.84-1.31-1.32-2.21-1.32h0Z"/>
</svg>