<?xml version="1.0" encoding="UTF-8"?>
<svg id="_레이어_3" data-name="레이어 3" xmlns="http://www.w3.org/2000/svg" viewBox="0 0 160 160">
  <path d="M73.66,36.6c11.61-11.61,17.41-17.41,24.63-17.41s13.02,5.8,24.63,17.41c11.61,11.61,17.41,17.41,17.41,24.63s-5.8,13.02-17.41,24.63l-29.15,29.15-49.25-49.25,29.15-29.15Z"/>
  <path d="M37.13,73.12l49.25,49.25-4.52,4.52c-2.63,2.63-4.95,4.95-7.07,6.99h65.53c2.88,0,5.21,2.33,5.21,5.21s-2.33,5.21-5.21,5.21H56.91c-7.06-.18-12.86-5.98-24.29-17.41-11.61-11.61-17.41-17.41-17.41-24.63s5.8-13.02,17.41-24.63l4.52-4.52Z"/>
</svg>