<?xml version="1.0" encoding="UTF-8"?>
<svg id="_레이어_8" data-name="레이어 8" xmlns="http://www.w3.org/2000/svg" viewBox="0 0 589 75">
  <defs>
    <style>
      .cls-1, .cls-2 {
        fill: #fff;
      }

      .cls-1, .cls-3 {
        stroke: #000;
        stroke-miterlimit: 10;
        stroke-width: 3px;
      }

      .cls-3 {
        fill: #ff3f65;
      }

      .cls-4 {
        fill: #2088ca;
      }

      .cls-5 {
        fill: #ff8f1f;
      }

      .cls-6 {
        fill: #e6e6e6;
      }
    </style>
  </defs>
  <g>
    <rect class="cls-6" x="24.94" y="22.51" width="12.99" height="12.99" rx="1.5" ry="1.5"/>
    <path d="M36.43,24.01v9.99h-9.99v-9.99h9.99M36.43,21.01h-9.99c-1.66,0-3,1.34-3,3v9.99c0,1.66,1.34,3,3,3h9.99c1.66,0,3-1.34,3-3v-9.99c0-1.66-1.34-3-3-3h0Z"/>
  </g>
  <g>
    <rect class="cls-6" x="8.95" y="22.51" width="12.99" height="12.99" rx="1.5" ry="1.5"/>
    <path d="M20.44,24.01v9.99h-9.99v-9.99h9.99M20.44,21.01h-9.99c-1.66,0-3,1.34-3,3v9.99c0,1.66,1.34,3,3,3h9.99c1.66,0,3-1.34,3-3v-9.99c0-1.66-1.34-3-3-3h0Z"/>
  </g>
  <g>
    <rect class="cls-4" x="8.95" y="6.52" width="12.99" height="12.99" rx="1.5" ry="1.5"/>
    <path d="M20.44,8.02v9.99h-9.99v-9.99h9.99M20.44,5.02h-9.99c-1.66,0-3,1.34-3,3v9.99c0,1.66,1.34,3,3,3h9.99c1.66,0,3-1.34,3-3v-9.99c0-1.66-1.34-3-3-3h0Z"/>
  </g>
  <g>
    <rect class="cls-6" x="8.95" y="38.5" width="12.99" height="12.99" rx="1.5" ry="1.5"/>
    <path d="M20.44,40v9.99h-9.99v-9.99h9.99M20.44,37h-9.99c-1.66,0-3,1.34-3,3v9.99c0,1.66,1.34,3,3,3h9.99c1.66,0,3-1.34,3-3v-9.99c0-1.66-1.34-3-3-3h0Z"/>
  </g>
  <g>
    <rect class="cls-6" x="34.07" y="38.5" width="12.99" height="12.99" rx="1.5" ry="1.5"/>
    <path d="M45.56,40v9.99h-9.99v-9.99h9.99M45.56,37h-9.99c-1.66,0-3,1.34-3,3v9.99c0,1.66,1.34,3,3,3h9.99c1.66,0,3-1.34,3-3v-9.99c0-1.66-1.34-3-3-3h0Z"/>
  </g>
  <g>
    <rect class="cls-6" x="8.95" y="54.49" width="12.99" height="12.99" rx="1.5" ry="1.5"/>
    <path d="M20.44,55.99v9.99h-9.99v-9.99h9.99M20.44,52.99h-9.99c-1.66,0-3,1.34-3,3v9.99c0,1.66,1.34,3,3,3h9.99c1.66,0,3-1.34,3-3v-9.99c0-1.66-1.34-3-3-3h0Z"/>
  </g>
  <g>
    <rect class="cls-6" x="50.06" y="6.52" width="12.99" height="12.99" rx="1.5" ry="1.5"/>
    <path d="M61.55,8.02v9.99h-9.99v-9.99h9.99M61.55,5.02h-9.99c-1.66,0-3,1.34-3,3v9.99c0,1.66,1.34,3,3,3h9.99c1.66,0,3-1.34,3-3v-9.99c0-1.66-1.34-3-3-3h0Z"/>
  </g>
  <g>
    <rect class="cls-6" x="50.06" y="22.51" width="12.99" height="12.99" rx="1.5" ry="1.5"/>
    <path d="M61.55,24.01v9.99h-9.99v-9.99h9.99M61.55,21.01h-9.99c-1.66,0-3,1.34-3,3v9.99c0,1.66,1.34,3,3,3h9.99c1.66,0,3-1.34,3-3v-9.99c0-1.66-1.34-3-3-3h0Z"/>
  </g>
  <g>
    <rect class="cls-6" x="50.06" y="38.5" width="12.99" height="12.99" rx="1.5" ry="1.5"/>
    <path d="M61.55,40v9.99h-9.99v-9.99h9.99M61.55,37h-9.99c-1.66,0-3,1.34-3,3v9.99c0,1.66,1.34,3,3,3h9.99c1.66,0,3-1.34,3-3v-9.99c0-1.66-1.34-3-3-3h0Z"/>
  </g>
  <g>
    <rect class="cls-6" x="50.06" y="54.49" width="12.99" height="12.99" rx="1.5" ry="1.5"/>
    <path d="M61.55,55.99v9.99h-9.99v-9.99h9.99M61.55,52.99h-9.99c-1.66,0-3,1.34-3,3v9.99c0,1.66,1.34,3,3,3h9.99c1.66,0,3-1.34,3-3v-9.99c0-1.66-1.34-3-3-3h0Z"/>
  </g>
  <g>
    <rect class="cls-6" x="389.82" y="6.53" width="12.95" height="12.95" rx="1.5" ry="1.5"/>
    <path d="M401.27,8.03v9.95h-9.95v-9.95h9.95M401.27,5.03h-9.95c-1.66,0-3,1.34-3,3v9.95c0,1.66,1.34,3,3,3h9.95c1.66,0,3-1.34,3-3v-9.95c0-1.66-1.34-3-3-3h0Z"/>
  </g>
  <rect class="cls-3" x="328.51" y="20.98" width="10.02" height="10.02" rx="3" ry="3"/>
  <g>
    <rect class="cls-6" x="389.82" y="22.48" width="12.95" height="12.95" rx="1.5" ry="1.5"/>
    <path d="M401.27,23.98v9.95h-9.95v-9.95h9.95M401.27,20.98h-9.95c-1.66,0-3,1.34-3,3v9.95c0,1.66,1.34,3,3,3h9.95c1.66,0,3-1.34,3-3v-9.95c0-1.66-1.34-3-3-3h0Z"/>
  </g>
  <g>
    <rect class="cls-6" x="389.82" y="38.43" width="12.95" height="12.95" rx="1.5" ry="1.5"/>
    <path d="M401.27,39.93v9.95h-9.95v-9.95h9.95M401.27,36.93h-9.95c-1.66,0-3,1.34-3,3v9.95c0,1.66,1.34,3,3,3h9.95c1.66,0,3-1.34,3-3v-9.95c0-1.66-1.34-3-3-3h0Z"/>
  </g>
  <g>
    <rect class="cls-6" x="405.77" y="6.53" width="12.95" height="12.95" rx="1.5" ry="1.5"/>
    <path d="M417.22,8.03v9.95h-9.95v-9.95h9.95M417.22,5.03h-9.95c-1.66,0-3,1.34-3,3v9.95c0,1.66,1.34,3,3,3h9.95c1.66,0,3-1.34,3-3v-9.95c0-1.66-1.34-3-3-3h0Z"/>
  </g>
  <g>
    <rect class="cls-6" x="405.77" y="30.46" width="12.95" height="12.95" rx="1.92" ry="1.92"/>
    <path d="M416.8,31.96c.23,0,.42.19.42.42v9.12c0,.23-.19.42-.42.42h-9.12c-.23,0-.42-.19-.42-.42v-9.12c0-.23.19-.42.42-.42h9.12M416.8,28.96h-9.12c-1.89,0-3.42,1.53-3.42,3.42v9.12c0,1.89,1.53,3.42,3.42,3.42h9.12c1.89,0,3.42-1.53,3.42-3.42v-9.12c0-1.89-1.53-3.42-3.42-3.42h0Z"/>
  </g>
  <g>
    <rect class="cls-5" x="421.72" y="30.46" width="12.95" height="12.95" rx="1.5" ry="1.5"/>
    <path d="M433.17,31.96v9.95h-9.95v-9.95h9.95M433.17,28.96h-9.95c-1.66,0-3,1.34-3,3v9.95c0,1.66,1.34,3,3,3h9.95c1.66,0,3-1.34,3-3v-9.95c0-1.66-1.34-3-3-3h0Z"/>
  </g>
  <g>
    <rect class="cls-6" x="389.82" y="54.39" width="12.95" height="12.95" rx="1.5" ry="1.5"/>
    <path d="M401.27,55.89v9.95h-9.95v-9.95h9.95M401.27,52.89h-9.95c-1.66,0-3,1.34-3,3v9.95c0,1.66,1.34,3,3,3h9.95c1.66,0,3-1.34,3-3v-9.95c0-1.66-1.34-3-3-3h0Z"/>
  </g>
  <g>
    <rect class="cls-6" x="421.72" y="6.52" width="12.95" height="12.95" rx="1.5" ry="1.5"/>
    <path d="M433.17,8.02v9.95h-9.95v-9.95h9.95M433.17,5.02h-9.95c-1.66,0-3,1.34-3,3v9.95c0,1.66,1.34,3,3,3h9.95c1.66,0,3-1.34,3-3v-9.95c0-1.66-1.34-3-3-3h0Z"/>
  </g>
  <path class="cls-1" d="M78.64,17.04h6.34c1.32,0,2.39,1.07,2.39,2.39v26.71c0,2.67.28,4.56.85,5.67.57,1.11,1.5,1.99,2.81,2.65s2.88.99,4.73.99c1.95,0,3.63-.37,5.05-1.11,1.41-.74,2.39-1.68,2.93-2.82.54-1.14.81-3.32.81-6.53v-25.57c0-1.32,1.07-2.39,2.39-2.39h6.34c1.32,0,2.39,1.07,2.39,2.39v26.2c0,4.83-.33,8.17-.99,10.04-.66,1.87-1.92,3.67-3.78,5.41-1.86,1.74-4,3.03-6.43,3.86-2.43.84-5.25,1.26-8.47,1.26-4.22,0-7.9-.8-11.02-2.4s-5.36-3.6-6.71-6c-1.35-2.4-2.02-6.46-2.02-12.18v-26.2c0-1.32,1.07-2.39,2.39-2.39Z"/>
  <path class="cls-1" d="M217.86,17.04h6.34c1.32,0,2.39,1.07,2.39,2.39v26.71c0,2.67.28,4.56.85,5.67.57,1.11,1.5,1.99,2.81,2.65s2.88.99,4.73.99c1.95,0,3.63-.37,5.05-1.11,1.41-.74,2.39-1.68,2.93-2.82.54-1.14.81-3.32.81-6.53v-25.57c0-1.32,1.07-2.39,2.39-2.39h6.34c1.32,0,2.39,1.07,2.39,2.39v26.2c0,4.83-.33,8.17-.99,10.04-.66,1.87-1.92,3.67-3.78,5.41-1.86,1.74-4,3.03-6.43,3.86-2.43.84-5.25,1.26-8.47,1.26-4.22,0-7.9-.8-11.02-2.4s-5.36-3.6-6.71-6c-1.35-2.4-2.02-6.46-2.02-12.18v-26.2c0-1.32,1.07-2.39,2.39-2.39Z"/>
  <path class="cls-1" d="M172.84,17.04h29.09c1.88,0,3.09,2,2.21,3.66l-17.24,32.6c-.7,1.33.26,2.93,1.76,2.93h14.07c1.1,0,2,.89,2,2v4.78c0,1.1-.89,2-2,2h-29.44c-1.88,0-3.09-2-2.21-3.66l17.14-32.33c.7-1.33-.26-2.93-1.76-2.93h-13.62c-1.1,0-2-.89-2-2v-5.04c0-1.1.89-2,2-2Z"/>
  <path class="cls-1" d="M267.42,17.04h9.2c.55,0,1,.45,1,1v13.04c0,.9,1.1,1.34,1.72.69l13.79-14.42c.19-.2.45-.31.72-.31h10.55c.88,0,1.33,1.05.72,1.69l-18.11,19.07c-.35.37-.37.94-.04,1.33l20.35,24.23c.55.65.08,1.64-.77,1.64h-10.53c-.29,0-.57-.13-.76-.36l-15.89-18.86c-.6-.71-1.76-.29-1.76.64v17.57c0,.55-.45,1-1,1h-9.2c-.55,0-1-.45-1-1V18.04c0-.55.45-1,1-1Z"/>
  <path class="cls-1" d="M447,18.84c0-.99.81-1.8,1.8-1.8h11.28c7.16,0,12.26.48,15.3,1.44,3.04.96,5.48,2.56,7.33,4.79,1.85,2.23,2.77,4.87,2.77,7.92,0,3.21-1.02,5.89-3.06,8.04-1.64,1.73-3.93,3.11-6.9,4.17-1.14.4-1.6,1.76-.9,2.75l11.91,16.82c.85,1.19,0,2.84-1.47,2.84h-9.08c-.59,0-1.13-.28-1.47-.76l-13.51-19.13c-.34-.48-.89-.76-1.47-.76h-.2v18.86c0,.99-.81,1.8-1.8,1.8h-8.74c-.99,0-1.8-.81-1.8-1.8V18.84Z"/>
  <path class="cls-1" d="M127.12,17.72c0-1.03.83-1.86,1.86-1.86h12.7c6.37,0,9.11.51,11.92,1.52,2.82,1.01,5.04,2.65,6.66,4.91,1.63,2.26,2.44,4.97,2.44,8.13,0,3.5-.69,5.99-2.43,8.71-1.64,2.55-3.85,3.72-5.35,4.39-1.89.85-4.28,1.25-7.3,1.25-1.98,0-6.96,0-9.4,0v19.38c0,1.03-.83,1.86-1.86,1.86h-7.38c-1.03,0-1.86-.83-1.86-1.86V17.72Z"/>
  <g>
    <rect class="cls-2" x="138.32" y="25.46" width="12.78" height="10.81" rx="1.5" ry="1.5"/>
    <path d="M149.6,26.96v7.81h-9.78v-7.81h9.78M149.6,23.96h-9.78c-1.66,0-3,1.34-3,3v7.81c0,1.66,1.34,3,3,3h9.78c1.66,0,3-1.34,3-3v-7.81c0-1.66-1.34-3-3-3h0Z"/>
  </g>
  <g>
    <rect class="cls-2" x="458.77" y="26.6" width="12.78" height="10.81" rx="1.5" ry="1.5"/>
    <path d="M470.04,28.1v7.81h-9.78v-7.81h9.78M470.04,25.1h-9.78c-1.66,0-3,1.34-3,3v7.81c0,1.66,1.34,3,3,3h9.78c1.66,0,3-1.34,3-3v-7.81c0-1.66-1.34-3-3-3h0Z"/>
  </g>
  <path class="cls-1" d="M331.35,36.08h4.34c1.1,0,2,.89,2,2v25.75c0,1.1-.89,2-2,2h-4.34c-1.1,0-2-.89-2-2v-25.75c0-1.1.89-2,2-2Z"/>
  <path class="cls-1" d="M366.18,40.02l-2.42,2.3c-.73.69-1.84.71-2.64.1-1.58-1.21-3.04-1.82-4.38-1.82-.94,0-1.67.19-2.2.57s-.79.85-.79,1.41c0,.43.17.82.5,1.17.34.36,1.17.85,2.49,1.46l3.06,1.45c3.22,1.51,5.43,3.04,6.63,4.61s1.8,3.4,1.8,5.51c0,2.8-1.08,5.14-3.25,7.01-2.17,1.87-5.08,2.81-8.72,2.81-4.1,0-7.51-1.29-10.21-3.86-.82-.78-.87-2.07-.09-2.88l2.45-2.53c.71-.73,1.87-.84,2.65-.2.66.54,1.38,1.01,2.16,1.4,1.31.67,2.48,1,3.5,1,1.1,0,1.99-.25,2.66-.75.67-.5,1.01-1.08,1.01-1.74,0-1.22-1.21-2.41-3.64-3.56l-2.81-1.33c-5.38-2.57-8.07-5.79-8.07-9.65,0-2.49,1.01-4.62,3.04-6.39,2.03-1.77,4.62-2.65,7.78-2.65,2.16,0,4.19.45,6.1,1.35,1.26.59,2.39,1.36,3.39,2.29.85.79.87,2.14.02,2.94Z"/>
  <path class="cls-1" d="M499.47,17.66h30.85c1.11,0,2.01.9,2.01,2.01v4.94c0,1.11-.9,2.01-2.01,2.01h-18.78c-1.11,0-2.01.9-2.01,2.01v4.68c0,1.11.9,2.01,2.01,2.01h18.78c1.11,0,2.01.9,2.01,2.01v4.78c0,1.11-.9,2.01-2.01,2.01h-18.78c-1.11,0-2.01.9-2.01,2.01v8.64c0,1.11.9,2.01,2.01,2.01h18.78c1.11,0,2.01.9,2.01,2.01v4.97c0,1.11-.9,2.01-2.01,2.01h-30.85c-1.11,0-2.01-.9-2.01-2.01V19.67c0-1.11.9-2.01,2.01-2.01Z"/>
  <path class="cls-1" d="M545.72,17.66h30.87c1.11,0,2,.9,2,2v4.96c0,1.11-.9,2-2,2h-18.8c-1.11,0-2,.9-2,2v4.7c0,1.11.9,2,2,2h18.8c1.11,0,2,.9,2,2v4.8c0,1.11-.9,2-2,2h-18.8c-1.11,0-2,.9-2,2v8.66c0,1.11.9,2,2,2h18.8c1.11,0,2,.9,2,2v5c0,1.11-.9,2-2,2h-30.87c-1.11,0-2-.9-2-2V19.66c0-1.11.9-2,2-2Z"/>
</svg>